<mxfile host="app.diagrams.net" modified="2022-02-17T10:33:59.573Z" agent="5.0 (Windows NT 10.0; Win64; x64) AppleWebKit/537.36 (KHTML, like Gecko) Chrome/98.0.4758.82 Safari/537.36" etag="MUJp2j2ZrI76CovdWnw7" version="16.5.6" type="github">
  <diagram id="d6Chr1kHq6BCrnBENWaE" name="Page-1">
    <mxGraphModel dx="1016" dy="504" grid="1" gridSize="10" guides="1" tooltips="1" connect="1" arrows="1" fold="1" page="1" pageScale="1" pageWidth="827" pageHeight="1169" math="0" shadow="0">
      <root>
        <mxCell id="0" />
        <mxCell id="1" parent="0" />
        <mxCell id="epqsiHfunm-0UIE78kq6-46" value="" style="shape=table;startSize=0;container=1;collapsible=0;childLayout=tableLayout;shadow=0;dashed=1;sketch=1;fillColor=none;flipH=0;" vertex="1" parent="1">
          <mxGeometry x="120" y="120" width="400" height="40" as="geometry" />
        </mxCell>
        <mxCell id="epqsiHfunm-0UIE78kq6-261" style="shape=tableRow;horizontal=0;startSize=0;swimlaneHead=0;swimlaneBody=0;top=0;left=0;bottom=0;right=0;collapsible=0;dropTarget=0;fillColor=none;points=[[0,0.5],[1,0.5]];portConstraint=eastwest;shadow=0;dashed=1;sketch=1;" vertex="1" parent="epqsiHfunm-0UIE78kq6-46">
          <mxGeometry width="400" height="40" as="geometry" />
        </mxCell>
        <mxCell id="epqsiHfunm-0UIE78kq6-274" value="&#39;内&#39;" style="shape=partialRectangle;html=1;whiteSpace=wrap;connectable=0;overflow=hidden;fillColor=#dae8fc;top=0;left=0;bottom=0;right=0;pointerEvents=1;shadow=0;dashed=1;sketch=1;fillStyle=zigzag-line;strokeColor=#6c8ebf;" vertex="1" parent="epqsiHfunm-0UIE78kq6-261">
          <mxGeometry width="40" height="40" as="geometry">
            <mxRectangle width="40" height="40" as="alternateBounds" />
          </mxGeometry>
        </mxCell>
        <mxCell id="epqsiHfunm-0UIE78kq6-273" value="&#39;卷&#39;" style="shape=partialRectangle;html=1;whiteSpace=wrap;connectable=0;overflow=hidden;fillColor=#dae8fc;top=0;left=0;bottom=0;right=0;pointerEvents=1;shadow=0;dashed=1;sketch=1;fillStyle=zigzag-line;strokeColor=#6c8ebf;" vertex="1" parent="epqsiHfunm-0UIE78kq6-261">
          <mxGeometry x="40" width="40" height="40" as="geometry">
            <mxRectangle width="40" height="40" as="alternateBounds" />
          </mxGeometry>
        </mxCell>
        <mxCell id="epqsiHfunm-0UIE78kq6-272" value="&#39;奥&#39;" style="shape=partialRectangle;html=1;whiteSpace=wrap;connectable=0;overflow=hidden;fillColor=#dae8fc;top=0;left=0;bottom=0;right=0;pointerEvents=1;shadow=0;dashed=1;sketch=1;fillStyle=zigzag-line;strokeColor=#6c8ebf;" vertex="1" parent="epqsiHfunm-0UIE78kq6-261">
          <mxGeometry x="80" width="40" height="40" as="geometry">
            <mxRectangle width="40" height="40" as="alternateBounds" />
          </mxGeometry>
        </mxCell>
        <mxCell id="epqsiHfunm-0UIE78kq6-271" value="&#39;义&#39;" style="shape=partialRectangle;html=1;whiteSpace=wrap;connectable=0;overflow=hidden;fillColor=#dae8fc;top=0;left=0;bottom=0;right=0;pointerEvents=1;shadow=0;dashed=1;sketch=1;fillStyle=zigzag-line;strokeColor=#6c8ebf;" vertex="1" parent="epqsiHfunm-0UIE78kq6-261">
          <mxGeometry x="120" width="40" height="40" as="geometry">
            <mxRectangle width="40" height="40" as="alternateBounds" />
          </mxGeometry>
        </mxCell>
        <mxCell id="epqsiHfunm-0UIE78kq6-270" value="&#39;\0&#39;" style="shape=partialRectangle;html=1;whiteSpace=wrap;connectable=0;overflow=hidden;fillColor=#dae8fc;top=0;left=0;bottom=0;right=0;pointerEvents=1;shadow=0;dashed=1;sketch=1;fillStyle=zigzag-line;strokeColor=#6c8ebf;" vertex="1" parent="epqsiHfunm-0UIE78kq6-261">
          <mxGeometry x="160" width="40" height="40" as="geometry">
            <mxRectangle width="40" height="40" as="alternateBounds" />
          </mxGeometry>
        </mxCell>
        <mxCell id="epqsiHfunm-0UIE78kq6-269" value="&#39;不&#39;" style="shape=partialRectangle;html=1;whiteSpace=wrap;connectable=0;overflow=hidden;fillColor=#f8cecc;top=0;left=0;bottom=0;right=0;pointerEvents=1;shadow=0;dashed=1;sketch=1;strokeColor=#b85450;fillStyle=zigzag-line;" vertex="1" parent="epqsiHfunm-0UIE78kq6-261">
          <mxGeometry x="200" width="40" height="40" as="geometry">
            <mxRectangle width="40" height="40" as="alternateBounds" />
          </mxGeometry>
        </mxCell>
        <mxCell id="epqsiHfunm-0UIE78kq6-268" value="&#39;能&#39;" style="shape=partialRectangle;html=1;whiteSpace=wrap;connectable=0;overflow=hidden;fillColor=#f8cecc;top=0;left=0;bottom=0;right=0;pointerEvents=1;shadow=0;dashed=1;sketch=1;strokeColor=#b85450;fillStyle=zigzag-line;" vertex="1" parent="epqsiHfunm-0UIE78kq6-261">
          <mxGeometry x="240" width="40" height="40" as="geometry">
            <mxRectangle width="40" height="40" as="alternateBounds" />
          </mxGeometry>
        </mxCell>
        <mxCell id="epqsiHfunm-0UIE78kq6-267" value="&#39;不&#39;" style="shape=partialRectangle;html=1;whiteSpace=wrap;connectable=0;overflow=hidden;fillColor=#f8cecc;top=0;left=0;bottom=0;right=0;pointerEvents=1;shadow=0;dashed=1;sketch=1;strokeColor=#b85450;fillStyle=zigzag-line;" vertex="1" parent="epqsiHfunm-0UIE78kq6-261">
          <mxGeometry x="280" width="40" height="40" as="geometry">
            <mxRectangle width="40" height="40" as="alternateBounds" />
          </mxGeometry>
        </mxCell>
        <mxCell id="epqsiHfunm-0UIE78kq6-266" value="&#39;看&#39;" style="shape=partialRectangle;html=1;whiteSpace=wrap;connectable=0;overflow=hidden;fillColor=#f8cecc;top=0;left=0;bottom=0;right=0;pointerEvents=1;shadow=0;dashed=1;sketch=1;strokeColor=#b85450;fillStyle=zigzag-line;" vertex="1" parent="epqsiHfunm-0UIE78kq6-261">
          <mxGeometry x="320" width="40" height="40" as="geometry">
            <mxRectangle width="40" height="40" as="alternateBounds" />
          </mxGeometry>
        </mxCell>
        <mxCell id="epqsiHfunm-0UIE78kq6-262" value="&#39;\0&#39;" style="shape=partialRectangle;html=1;whiteSpace=wrap;connectable=0;overflow=hidden;fillColor=#f8cecc;top=0;left=0;bottom=0;right=0;pointerEvents=1;shadow=0;dashed=1;sketch=1;strokeColor=#b85450;fillStyle=zigzag-line;" vertex="1" parent="epqsiHfunm-0UIE78kq6-261">
          <mxGeometry x="360" width="40" height="40" as="geometry">
            <mxRectangle width="40" height="40" as="alternateBounds" />
          </mxGeometry>
        </mxCell>
        <mxCell id="epqsiHfunm-0UIE78kq6-292" value="" style="shape=table;startSize=0;container=1;collapsible=0;childLayout=tableLayout;shadow=0;dashed=1;sketch=1;fillColor=none;flipH=0;" vertex="1" parent="1">
          <mxGeometry x="120" y="200" width="400" height="40" as="geometry" />
        </mxCell>
        <mxCell id="epqsiHfunm-0UIE78kq6-293" style="shape=tableRow;horizontal=0;startSize=0;swimlaneHead=0;swimlaneBody=0;top=0;left=0;bottom=0;right=0;collapsible=0;dropTarget=0;fillColor=none;points=[[0,0.5],[1,0.5]];portConstraint=eastwest;shadow=0;dashed=1;sketch=1;" vertex="1" parent="epqsiHfunm-0UIE78kq6-292">
          <mxGeometry width="400" height="40" as="geometry" />
        </mxCell>
        <mxCell id="epqsiHfunm-0UIE78kq6-294" value="&#39;内&#39;" style="shape=partialRectangle;html=1;whiteSpace=wrap;connectable=0;overflow=hidden;fillColor=#dae8fc;top=0;left=0;bottom=0;right=0;pointerEvents=1;shadow=0;dashed=1;sketch=1;strokeColor=#6c8ebf;fillStyle=zigzag-line;" vertex="1" parent="epqsiHfunm-0UIE78kq6-293">
          <mxGeometry width="40" height="40" as="geometry">
            <mxRectangle width="40" height="40" as="alternateBounds" />
          </mxGeometry>
        </mxCell>
        <mxCell id="epqsiHfunm-0UIE78kq6-295" value="&#39;卷&#39;" style="shape=partialRectangle;html=1;whiteSpace=wrap;connectable=0;overflow=hidden;fillColor=#dae8fc;top=0;left=0;bottom=0;right=0;pointerEvents=1;shadow=0;dashed=1;sketch=1;strokeColor=#6c8ebf;fillStyle=zigzag-line;" vertex="1" parent="epqsiHfunm-0UIE78kq6-293">
          <mxGeometry x="40" width="40" height="40" as="geometry">
            <mxRectangle width="40" height="40" as="alternateBounds" />
          </mxGeometry>
        </mxCell>
        <mxCell id="epqsiHfunm-0UIE78kq6-296" value="&#39;奥&#39;" style="shape=partialRectangle;html=1;whiteSpace=wrap;connectable=0;overflow=hidden;fillColor=#dae8fc;top=0;left=0;bottom=0;right=0;pointerEvents=1;shadow=0;dashed=1;sketch=1;strokeColor=#6c8ebf;fillStyle=zigzag-line;" vertex="1" parent="epqsiHfunm-0UIE78kq6-293">
          <mxGeometry x="80" width="40" height="40" as="geometry">
            <mxRectangle width="40" height="40" as="alternateBounds" />
          </mxGeometry>
        </mxCell>
        <mxCell id="epqsiHfunm-0UIE78kq6-297" value="&#39;义&#39;" style="shape=partialRectangle;html=1;whiteSpace=wrap;connectable=0;overflow=hidden;fillColor=#dae8fc;top=0;left=0;bottom=0;right=0;pointerEvents=1;shadow=0;dashed=1;sketch=1;strokeColor=#6c8ebf;fillStyle=zigzag-line;" vertex="1" parent="epqsiHfunm-0UIE78kq6-293">
          <mxGeometry x="120" width="40" height="40" as="geometry">
            <mxRectangle width="40" height="40" as="alternateBounds" />
          </mxGeometry>
        </mxCell>
        <mxCell id="epqsiHfunm-0UIE78kq6-298" value="狗" style="shape=partialRectangle;html=1;whiteSpace=wrap;connectable=0;overflow=hidden;fillColor=#dae8fc;top=0;left=0;bottom=0;right=0;pointerEvents=1;shadow=0;dashed=1;sketch=1;strokeColor=#6c8ebf;fillStyle=zigzag-line;" vertex="1" parent="epqsiHfunm-0UIE78kq6-293">
          <mxGeometry x="160" width="40" height="40" as="geometry">
            <mxRectangle width="40" height="40" as="alternateBounds" />
          </mxGeometry>
        </mxCell>
        <mxCell id="epqsiHfunm-0UIE78kq6-299" value="都" style="shape=partialRectangle;html=1;whiteSpace=wrap;connectable=0;overflow=hidden;fillColor=#dae8fc;top=0;left=0;bottom=0;right=0;pointerEvents=1;shadow=0;dashed=1;sketch=1;strokeColor=#6c8ebf;fillStyle=zigzag-line;" vertex="1" parent="epqsiHfunm-0UIE78kq6-293">
          <mxGeometry x="200" width="40" height="40" as="geometry">
            <mxRectangle width="40" height="40" as="alternateBounds" />
          </mxGeometry>
        </mxCell>
        <mxCell id="epqsiHfunm-0UIE78kq6-300" value="&#39;\0‘" style="shape=partialRectangle;html=1;whiteSpace=wrap;connectable=0;overflow=hidden;fillColor=#dae8fc;top=0;left=0;bottom=0;right=0;pointerEvents=1;shadow=0;dashed=1;sketch=1;strokeColor=#6c8ebf;fillStyle=zigzag-line;" vertex="1" parent="epqsiHfunm-0UIE78kq6-293">
          <mxGeometry x="240" width="40" height="40" as="geometry">
            <mxRectangle width="40" height="40" as="alternateBounds" />
          </mxGeometry>
        </mxCell>
        <mxCell id="epqsiHfunm-0UIE78kq6-301" value="&#39;不&#39;" style="shape=partialRectangle;html=1;whiteSpace=wrap;connectable=0;overflow=hidden;fillColor=#f8cecc;top=0;left=0;bottom=0;right=0;pointerEvents=1;shadow=0;dashed=1;sketch=1;strokeColor=#b85450;fillStyle=zigzag-line;" vertex="1" parent="epqsiHfunm-0UIE78kq6-293">
          <mxGeometry x="280" width="40" height="40" as="geometry">
            <mxRectangle width="40" height="40" as="alternateBounds" />
          </mxGeometry>
        </mxCell>
        <mxCell id="epqsiHfunm-0UIE78kq6-302" value="&#39;看&#39;" style="shape=partialRectangle;html=1;whiteSpace=wrap;connectable=0;overflow=hidden;fillColor=#f8cecc;top=0;left=0;bottom=0;right=0;pointerEvents=1;shadow=0;dashed=1;sketch=1;strokeColor=#b85450;fillStyle=zigzag-line;" vertex="1" parent="epqsiHfunm-0UIE78kq6-293">
          <mxGeometry x="320" width="40" height="40" as="geometry">
            <mxRectangle width="40" height="40" as="alternateBounds" />
          </mxGeometry>
        </mxCell>
        <mxCell id="epqsiHfunm-0UIE78kq6-303" value="&#39;\0&#39;" style="shape=partialRectangle;html=1;whiteSpace=wrap;connectable=0;overflow=hidden;fillColor=#f8cecc;top=0;left=0;bottom=0;right=0;pointerEvents=1;shadow=0;dashed=1;sketch=1;strokeColor=#b85450;fillStyle=zigzag-line;" vertex="1" parent="epqsiHfunm-0UIE78kq6-293">
          <mxGeometry x="360" width="40" height="40" as="geometry">
            <mxRectangle width="40" height="40" as="alternateBounds" />
          </mxGeometry>
        </mxCell>
      </root>
    </mxGraphModel>
  </diagram>
</mxfile>
